<svg width="35" height="35" viewBox="0 0 35 35" fill="none" xmlns="http://www.w3.org/2000/svg">
<rect width="35" height="35" rx="17.5" fill="#120F26"/>
<path d="M11.9444 19.7222V17.5H23.0556V19.7222H11.9444ZM11.9444 24.1667V21.9444H19.7222V24.1667H11.9444ZM9.72222 28.6111C9.11111 28.6111 8.58815 28.3937 8.15333 27.9589C7.71852 27.5241 7.50074 27.0007 7.5 26.3889V10.8333C7.5 10.2222 7.71778 9.69926 8.15333 9.26444C8.58889 8.82963 9.11185 8.61185 9.72222 8.61111H10.8333V6.38889H13.0556V8.61111H21.9444V6.38889H24.1667V8.61111H25.2778C25.8889 8.61111 26.4122 8.82889 26.8478 9.26444C27.2833 9.7 27.5007 10.223 27.5 10.8333V26.3889C27.5 27 27.2826 27.5233 26.8478 27.9589C26.413 28.3944 25.8896 28.6118 25.2778 28.6111H9.72222ZM9.72222 26.3889H25.2778V15.2778H9.72222V26.3889Z" fill="#57F2AA"/>
</svg>
